:FULLY-SPECIFIED
:FORCE-ALL-JOINTS-BE-3DOF
:DEGREES
204
root -2.90033 16.3091 -36.1129 3.7832 0.646692 -2.93596
lfemur -23.9354 6.69639 -8.21549
ltibia 48.635 0 0
lfoot -23.8368 0.360269 0
ltoes -9.76198 0 0
rfemur -23.8153 -7.45999 14.5938
rtibia 50.6272 0 0
rfoot -27.5821 1.88736 0
rtoes -8.38287 0 0
lowerback 7.29953 1.94784 -1.69821
upperback -3.76634 2.53149 1.31599
thorax -8.21056 1.37118 1.97961
lowerneck -3.36742 -3.89976 -6.58543
upperneck 6.88593 -5.26827 6.06024
head 3.23667 -2.59453 2.98086
lclavicle 9.37083e-15 8.94531e-16 0
lhumerus -26.5764 -1.80314 88.7513
lradius 24.2623 0 0
lwrist -31.4011 0 0
lhand -28.2389 30.1487 0
lfingers 7.12502 0 0
lthumb -1.61668 60.1223 0
rclavicle 9.37083e-15 8.94531e-16 0
rhumerus -32.2358 2.05261 -79.9556
rradius 30.4458 0 0
rwrist 3.13154 0 0
rhand -19.7608 -27.0687 0
rfingers 7.12502 0 0
rthumb 6.57076 -56.9468 0
205
root -2.90076 16.3075 -36.1111 3.77155 0.653511 -2.90154
lfemur -23.9443 6.70284 -8.21178
ltibia 48.6919 0 0
lfoot -23.8665 0.353936 0
ltoes -9.77158 0 0
rfemur -23.8154 -7.47506 14.5921
rtibia 50.6588 0 0
rfoot -27.6165 1.87347 0
rtoes -8.41021 0 0
lowerback 7.29923 1.95169 -1.72821
upperback -3.75822 2.53231 1.30223
thorax -8.20242 1.37263 1.98192
lowerneck -3.42443 -3.90966 -6.55163
upperneck 6.92512 -5.27961 6.02983
head 3.25922 -2.59935 2.96279
lclavicle -9.12856e-15 -6.95746e-15 0
lhumerus -26.5582 -1.83061 88.7652
lradius 24.2607 0 0
lwrist -31.4356 0 0
lhand -28.2606 30.072 0
lfingers 7.12502 0 0
lthumb -1.63758 60.0454 0
rclavicle -9.12856e-15 -6.95746e-15 0
rhumerus -32.2187 2.00814 -79.9437
rradius 30.4364 0 0
rwrist 3.14936 0 0
rhand -19.8187 -27.008 0
rfingers 7.12502 0 0
rthumb 6.51481 -56.8877 0
206
root -2.90138 16.305 -36.1106 3.76868 0.66911 -2.9246
lfemur -23.9539 6.70977 -8.20779
ltibia 48.748 0 0
lfoot -23.8942 0.348029 0
ltoes -9.78158 0 0
rfemur -23.8156 -7.49086 14.5903
rtibia 50.6969 0 0
rfoot -27.6508 1.85957 0
rtoes -8.43599 0 0
lowerback 7.29131 1.95374 -1.69565
upperback -3.74773 2.53866 1.30361
thorax -8.18527 1.37379 1.96455
lowerneck -3.43602 -3.91994 -6.54011
upperneck 6.9053 -5.29236 6.02499
head 3.25484 -2.60532 2.95808
lclavicle -1.30647e-14 4.96962e-16 0
lhumerus -26.5489 -1.89002 88.794
lradius 24.3179 0 0
lwrist -31.374 0 0
lhand -28.2296 30.1145 0
lfingers 7.12502 0 0
lthumb -1.6077 60.0882 0
rclavicle -1.30647e-14 4.96962e-16 0
rhumerus -32.2196 2.00376 -79.9386
rradius 30.4557 0 0
rwrist 3.12415 0 0
rhand -20.0827 -26.8213 0
rfingers 7.12502 0 0
rthumb 6.25995 -56.7088 0
207
root -2.90215 16.303 -36.1086 3.76247 0.674298 -2.90984
lfemur -23.964 6.71705 -8.2036
ltibia 48.8028 0 0
lfoot -23.9195 0.342633 0
ltoes -9.79188 0 0
rfemur -23.8157 -7.50723 14.5884
rtibia 50.7405 0 0
rfoot -27.6849 1.84579 0
rtoes -8.45991 0 0
lowerback 7.27704 1.94759 -1.7196
upperback -3.74702 2.52857 1.31085
thorax -8.17719 1.37036 1.98757
lowerneck -3.44052 -3.89992 -6.56686
upperneck 6.92316 -5.26432 6.02696
head 3.261 -2.59202 2.9652
lclavicle -7.36435e-15 6.26172e-15 0
lhumerus -26.5541 -1.86373 88.8072
lradius 24.3196 0 0
lwrist -31.3826 0 0
lhand -28.2372 30.0722 0
lfingers 7.12502 0 0
lthumb -1.61501 60.0458 0
rclavicle -7.36435e-15 6.26172e-15 0
rhumerus -32.2245 2.03444 -79.9285
rradius 30.4408 0 0
rwrist 3.13092 0 0
rhand -20.1873 -26.6924 0
rfingers 7.12502 0 0
rthumb 6.15899 -56.5829 0
208
root -2.90299 16.3002 -36.1078 3.75868 0.677291 -2.90975
lfemur -23.9743 6.72453 -8.1993
ltibia 48.8556 0 0
lfoot -23.942 0.337833 0
ltoes -9.80234 0 0
rfemur -23.8158 -7.52401 14.5865
rtibia 50.7885 0 0
rfoot -27.7183 1.83227 0
rtoes -8.48164 0 0
lowerback 7.25548 1.95376 -1.71619
upperback -3.74281 2.53732 1.30924
thorax -8.16028 1.37427 1.98339
lowerneck -3.38995 -3.9138 -6.5566
upperneck 6.88388 -5.28408 6.01499
head 3.23828 -2.60267 2.95858
lclavicle 2.4105e-14 8.54774e-15 0
lhumerus -26.5653 -1.92384 88.8392
lradius 24.3607 0 0
lwrist -31.3094 0 0
lhand -28.2068 30.0482 0
lfingers 7.12502 0 0
lthumb -1.58568 60.022 0
rclavicle 2.4105e-14 8.54774e-15 0
rhumerus -32.2266 2.01248 -79.9143
rradius 30.432 0 0
rwrist 3.14831 0 0
rhand -20.113 -26.7991 0
rfingers 7.12502 0 0
rthumb 6.23076 -56.6875 0
209
root -2.90209 16.2976 -36.1072 3.75247 0.707424 -2.92889
lfemur -23.9848 6.73207 -8.19496
ltibia 48.906 0 0
lfoot -23.9613 0.333715 0
ltoes -9.81287 0 0
rfemur -23.816 -7.54103 14.5846
rtibia 50.8397 0 0
rfoot -27.7509 1.81911 0
rtoes -8.50089 0 0
lowerback 7.26468 1.94918 -1.66084
upperback -3.73773 2.53651 1.30386
thorax -8.15712 1.3706 1.94654
lowerneck -3.38798 -3.90834 -6.56409
upperneck 6.83762 -5.27652 6.03983
head 3.22278 -2.59832 2.96885
lclavicle 1.82408e-14 9.54166e-15 0
lhumerus -26.5436 -1.90738 88.8463
lradius 24.3649 0 0
lwrist -31.3531 0 0
lhand -28.306 29.9577 0
lfingers 7.12502 0 0
lthumb -1.68147 59.9308 0
rclavicle 1.82408e-14 9.54166e-15 0
rhumerus -32.2306 1.99682 -79.9057
rradius 30.4424 0 0
rwrist 3.14448 0 0
rhand -19.9972 -26.817 0
rfingers 7.12502 0 0
rthumb 6.34254 -56.7021 0
210
root -2.90262 16.2952 -36.1071 3.73029 0.73072 -2.92387
lfemur -23.9951 6.73955 -8.19066
ltibia 48.9534 0 0
lfoot -23.977 0.330364 0
ltoes -9.82333 0 0
rfemur -23.8161 -7.55814 14.5827
rtibia 50.8932 0 0
rfoot -27.7822 1.80645 0
rtoes -8.51733 0 0
lowerback 7.30819 1.95117 -1.6626
upperback -3.73344 2.5387 1.30679
thorax -8.17823 1.3719 1.94904
lowerneck -3.44255 -3.91591 -6.53726
upperneck 6.8696 -5.28226 5.98484
head 3.24117 -2.60136 2.9438
lclavicle 2.38215e-14 1.64991e-14 0
lhumerus -26.5299 -1.93112 88.8819
lradius 24.3717 0 0
lwrist -31.3048 0 0
lhand -28.3416 29.9337 0
lfingers 7.12502 0 0
lthumb -1.71588 59.9066 0
rclavicle 2.38215e-14 1.64991e-14 0
rhumerus -32.2578 2.00698 -79.8868
rradius 30.4624 0 0
rwrist 3.14058 0 0
rhand -19.8112 -27.0467 0
rfingers 7.12502 0 0
rthumb 6.52208 -56.9263 0
211
root -2.90343 16.2931 -36.1061 3.70836 0.741095 -2.95548
lfemur -24.0052 6.74683 -8.18647
ltibia 48.9973 0 0
lfoot -23.9887 0.327865 0
ltoes -9.83363 0 0
rfemur -23.8163 -7.57516 14.5808
rtibia 50.9477 0 0
rfoot -27.812 1.79441 0
rtoes -8.53066 0 0
lowerback 7.31817 1.96043 -1.6306
upperback -3.72515 2.55495 1.3143
thorax -8.17475 1.37822 1.93645
lowerneck -3.4221 -3.92503 -6.54924
upperneck 6.84681 -5.29579 6.00728
head 3.23186 -2.60798 2.95339
lclavicle 7.61206e-15 -4.87022e-15 0
lhumerus -26.5151 -1.95002 88.9072
lradius 24.3857 0 0
lwrist -31.2785 0 0
lhand -28.2893 30.048 0
lfingers 7.12502 0 0
lthumb -1.66536 60.0213 0
rclavicle 7.61206e-15 -4.87022e-15 0
rhumerus -32.2852 1.98419 -79.8659
rradius 30.476 0 0
rwrist 3.12908 0 0
rhand -19.7934 -27.0466 0
rfingers 7.12502 0 0
rthumb 6.53927 -56.9257 0
212
root -2.90318 16.2904 -36.1055 3.68549 0.769323 -2.95528
lfemur -24.0148 6.75376 -8.18248
ltibia 49.0371 0 0
lfoot -23.9961 0.326303 0
ltoes -9.84363 0 0
rfemur -23.8164 -7.59194 14.5789
rtibia 51.0022 0 0
rfoot -27.8399 1.78311 0
rtoes -8.54057 0 0
lowerback 7.34507 1.94327 -1.62025
upperback -3.70781 2.53292 1.3186
thorax -8.1703 1.36678 1.93785
lowerneck -3.50007 -3.92335 -6.54557
upperneck 6.88107 -5.29015 6.00088
head 3.25775 -2.60411 2.94992
lclavicle 1.35104e-14 1.26228e-14 0
lhumerus -26.4665 -1.89938 88.9068
lradius 24.3747 0 0
lwrist -31.2878 0 0
lhand -28.367 29.8686 0
lfingers 7.12502 0 0
lthumb -1.74038 59.8412 0
rclavicle 1.35104e-14 1.26228e-14 0
rhumerus -32.2364 2.0175 -79.8734
rradius 30.4351 0 0
rwrist 3.15061 0 0
rhand -19.7813 -27.0979 0
rfingers 7.12502 0 0
rthumb 6.55091 -56.9765 0
213
root -2.90366 16.2873 -36.1053 3.67543 0.793555 -2.95494
lfemur -24.0237 6.76021 -8.17877
ltibia 49.0723 0 0
lfoot -23.9986 0.325763 0
ltoes -9.85323 0 0
rfemur -23.8165 -7.60831 14.577
rtibia 51.0557 0 0
rfoot -27.8657 1.77268 0
rtoes -8.54674 0 0
lowerback 7.33746 1.94981 -1.61779
upperback -3.70343 2.54156 1.31269
thorax -8.16115 1.37059 1.92925
lowerneck -3.47653 -3.92727 -6.53851
upperneck 6.86483 -5.29839 6.02446
head 3.24897 -2.6076 2.95663
lclavicle 3.00965e-14 3.8763e-15 0
lhumerus -26.4538 -1.94735 88.9315
lradius 24.3794 0 0
lwrist -31.2662 0 0
lhand -28.3065 29.9289 0
lfingers 7.12502 0 0
lthumb -1.68193 59.9021 0
rclavicle 3.00965e-14 3.8763e-15 0
rhumerus -32.2543 1.98176 -79.859
rradius 30.4269 0 0
rwrist 3.16521 0 0
rhand -19.7585 -27.1555 0
rfingers 7.12502 0 0
rthumb 6.57295 -57.0335 0
214
root -2.90454 16.2844 -36.1046 3.68528 0.82175 -2.93451
lfemur -24.0318 6.76605 -8.17541
ltibia 49.1023 0 0
lfoot -24.0002 0.32689 0
ltoes -9.86231 0 0
rfemur -23.8167 -7.62411 14.5752
rtibia 51.1069 0 0
rfoot -27.8891 1.76324 0
rtoes -8.54887 0 0
lowerback 7.34208 1.94886 -1.64865
upperback -3.71721 2.53692 1.31109
thorax -8.17992 1.3702 1.94522
lowerneck -3.46672 -3.92845 -6.55188
upperneck 6.86306 -5.30137 6.04698
head 3.24824 -2.60887 2.96698
lclavicle -2.84169e-14 -1.39149e-15 0
lhumerus -26.4607 -1.97706 88.9599
lradius 24.3933 0 0
lwrist -31.2747 0 0
lhand -28.3289 29.9747 0
lfingers 7.12502 0 0
lthumb -1.70362 59.9477 0
rclavicle -2.84169e-14 -1.39149e-15 0
rhumerus -32.2846 1.96995 -79.8375
rradius 30.4267 0 0
rwrist 3.181 0 0
rhand -19.7733 -27.1744 0
rfingers 7.12502 0 0
rthumb 6.55868 -57.0528 0
215
root -2.90469 16.2821 -36.1039 3.66273 0.847193 -2.92179
lfemur -24.0388 6.77113 -8.17249
ltibia 49.1265 0 0
lfoot -24.005 0.33016 0
ltoes -9.87076 0 0
rfemur -23.8168 -7.63918 14.5735
rtibia 51.1549 0 0
rfoot -27.9097 1.75491 0
rtoes -8.54896 0 0
lowerback 7.34568 1.94195 -1.66909
upperback -3.69561 2.52573 1.31764
thorax -8.15945 1.3657 1.96549
lowerneck -3.4966 -3.93209 -6.55181
upperneck 6.86388 -5.30397 6.03884
head 3.25407 -2.60995 2.96364
lclavicle -2.87966e-14 -3.97569e-15 0
lhumerus -26.4344 -1.97904 88.9888
lradius 24.4163 0 0
lwrist -31.2479 0 0
lhand -28.2804 29.9769 0
lfingers 7.12502 0 0
lthumb -1.65672 59.9502 0
rclavicle -2.87966e-14 -3.97569e-15 0
rhumerus -32.2391 1.96444 -79.8151
rradius 30.3841 0 0
rwrist 3.17737 0 0
rhand -19.7599 -27.2172 0
rfingers 7.12502 0 0
rthumb 6.57156 -57.0952 0
